<svg width="96" height="96" viewBox="0 0 480 480" fill="none" xmlns="http://www.w3.org/2000/svg">
<mask id="path-1-outside-1_1_8" maskUnits="userSpaceOnUse" x="23" y="81" width="196" height="255" fill="black">
<rect fill="white" x="23" y="81" width="196" height="255"/>
<path d="M212.004 267.664V269.367C212.004 270.956 211.837 272.659 211.504 274.475C211.172 276.177 211.005 277.823 211.005 279.412C211.227 283.725 211.782 288.209 212.669 292.862C213.556 297.403 214 301.773 214 305.972C214 308.81 213.612 311.42 212.835 313.804C212.059 316.188 210.728 318.344 208.843 320.274C207.512 321.636 205.515 322.544 202.853 322.998C200.191 323.452 197.308 324.417 194.202 325.892C191.984 326.914 190.043 327.992 188.379 329.127C186.716 330.376 185.052 331 183.388 331C181.281 331 178.674 330.489 175.569 329.468C172.574 328.56 169.413 327.425 166.086 326.063C162.759 324.587 159.487 323.055 156.27 321.466C153.054 319.877 150.281 318.401 147.952 317.039C144.957 315.45 142.628 313.634 140.964 311.591C139.411 309.548 138.302 307.107 137.637 304.27C136.971 301.319 136.583 297.857 136.472 293.884C136.361 289.798 136.306 284.86 136.306 279.072C136.306 274.531 136.361 269.367 136.472 263.578C136.583 257.789 136.639 252.284 136.639 247.063C136.639 243.091 136.639 238.891 136.639 234.464C136.75 229.924 135.973 225.838 134.309 222.206C133.422 221.298 131.703 220.73 129.152 220.503C126.601 220.276 123.773 220.163 120.667 220.163C118.116 220.163 115.51 220.219 112.848 220.333C110.297 220.446 107.912 220.503 105.694 220.503C102.589 220.503 99.8712 219.936 97.542 218.801C95.3238 217.666 93.0501 217.098 90.7209 217.098C89.6118 217.098 88.3363 217.495 86.8945 218.29C85.5635 219.084 84.898 220.787 84.898 223.398C84.898 224.646 85.0089 226.065 85.2308 227.654C85.4526 229.129 85.6744 230.548 85.8962 231.91C86.1181 233.272 86.3399 234.521 86.5617 235.656C86.7835 236.678 86.8945 237.359 86.8945 237.699C86.8945 241.899 86.7281 245.985 86.3954 249.958C86.0626 253.93 85.8962 257.392 85.8962 260.343C85.8962 262.84 86.1181 265.735 86.5617 269.026C87.0054 272.318 87.449 275.78 87.8927 279.412C88.4472 283.044 88.9463 286.79 89.39 290.649C89.8336 294.508 90.0555 298.197 90.0555 301.716C90.0555 307.618 89.3345 312.442 87.8927 316.188C86.5617 319.82 84.3435 322.714 81.2379 324.871C78.2433 326.914 74.3059 328.333 69.4258 329.127C64.5456 329.922 58.6673 330.319 51.7907 330.319C48.5742 330.319 45.5796 329.411 42.8068 327.595C40.034 325.779 37.5939 323.736 35.4866 321.466C33.3792 319.082 31.7156 316.812 30.4955 314.655C29.2755 312.499 28.6655 311.023 28.6655 310.229C28.6655 308.867 28.8318 307.505 29.1646 306.142C29.4973 304.667 29.8855 303.191 30.3292 301.716C30.7728 300.127 31.161 298.594 31.4937 297.119C31.8265 295.53 31.9928 294.054 31.9928 292.692C31.9928 290.763 31.771 288.833 31.3274 286.903C30.8837 284.86 30.3846 282.874 29.8301 280.944C29.3864 279.015 28.9428 277.085 28.4991 275.156C28.1664 273.226 28 271.41 28 269.707C28 266.756 28.3327 263.635 28.9982 260.343C29.6637 256.938 29.9964 253.76 29.9964 250.809C29.9964 246.496 29.8855 242.012 29.6637 237.359C29.4419 232.705 29.3309 227.938 29.3309 223.057C29.3309 220.56 29.3309 218.12 29.3309 215.736C29.4419 213.352 29.6637 210.855 29.9964 208.245C30.2182 206.996 30.6064 206.031 31.161 205.35C31.7156 204.669 31.9928 203.704 31.9928 202.456C31.9928 200.299 31.6601 198.256 30.9946 196.327C30.3292 194.397 29.9964 192.354 29.9964 190.197C29.9964 186.338 30.2182 181.968 30.6619 177.088C31.1055 172.207 31.6047 167.213 32.1592 162.105C32.8247 156.884 33.3792 151.719 33.8229 146.612C34.2665 141.39 34.4884 136.51 34.4884 131.969C34.4884 129.132 34.1002 126.237 33.3238 123.286C32.6583 120.335 32.3256 117.554 32.3256 114.944C32.3256 113.695 32.7692 112.049 33.6565 110.006C34.5438 107.85 35.8193 105.75 37.483 103.707C39.2576 101.664 41.3649 99.9043 43.805 98.4288C46.356 96.8397 49.2397 96.0452 52.4562 96.0452C56.0054 96.0452 59 96.4992 61.4401 97.4072C63.9911 98.2018 66.0429 99.2801 67.5957 100.642C69.2594 102.004 70.424 103.48 71.0894 105.069C71.8658 106.658 72.254 108.19 72.254 109.666C72.254 112.276 72.0877 114.887 71.7549 117.498C71.4222 120.108 71.2558 122.038 71.2558 123.286C71.4776 124.875 71.9213 126.521 72.5868 128.224C73.3631 129.813 73.9177 131.742 74.2504 134.013C74.9159 138.099 75.3596 142.639 75.5814 147.633C75.9141 152.514 76.136 157.111 76.2469 161.424C76.4687 165.624 76.6351 169.256 76.746 172.32C76.8569 175.271 77.0787 176.917 77.4115 177.258C78.1878 178.052 79.907 178.677 82.5689 179.131C85.2308 179.471 88.2254 179.755 91.5528 179.982C94.8801 180.095 98.3184 180.209 101.868 180.322C105.417 180.322 108.522 180.379 111.184 180.493C113.07 180.72 115.177 181.003 117.506 181.344C119.835 181.685 122.109 181.855 124.327 181.855C127.766 181.855 129.984 180.947 130.982 179.131C132.091 177.315 132.646 174.931 132.646 171.98C132.646 169.029 132.369 166.021 131.814 162.956C131.37 159.892 131.148 157.451 131.148 155.635C131.148 153.933 131.481 152.4 132.147 151.038C132.923 149.676 133.311 148.314 133.311 146.952C133.311 141.163 132.923 135.318 132.147 129.416C131.481 123.4 131.148 117.838 131.148 112.73C131.148 110.687 131.426 108.19 131.98 105.239C132.646 102.174 133.755 99.2233 135.308 96.3857C136.86 93.5481 138.968 91.1077 141.63 89.0646C144.292 87.0215 147.73 86 151.945 86C154.828 86 158.156 86.5108 161.927 87.5323C165.809 88.4404 169.524 89.6322 173.073 91.1077C176.623 92.5833 179.839 94.2858 182.723 96.2154C185.606 98.0315 187.603 99.8476 188.712 101.664C189.71 103.253 190.376 105.182 190.708 107.452C191.152 109.609 191.429 111.993 191.54 114.603C191.762 117.1 191.873 119.711 191.873 122.435C191.873 125.046 191.984 127.543 192.206 129.926C192.428 133.331 192.705 137.134 193.038 141.334C193.37 145.533 193.759 149.903 194.202 154.443C194.757 158.984 195.422 163.58 196.199 168.234C196.975 172.888 198.029 177.315 199.36 181.514C199.803 183.217 200.413 184.806 201.19 186.281C201.966 187.644 202.687 189.006 203.352 190.368C204.129 191.616 204.739 192.865 205.182 194.113C205.737 195.248 205.959 196.383 205.848 197.518C205.848 199.107 205.682 200.64 205.349 202.115C205.016 203.591 204.85 205.293 204.85 207.223C204.85 211.65 205.349 216.417 206.347 221.525C207.345 226.632 207.844 231.74 207.844 236.848C207.844 238.664 207.789 240.423 207.678 242.126C207.567 243.828 207.512 245.474 207.512 247.063C207.512 248.766 207.733 250.525 208.177 252.341C208.621 254.044 209.12 255.746 209.674 257.449C210.229 259.151 210.728 260.854 211.172 262.557C211.615 264.259 211.893 265.962 212.004 267.664Z"/>
</mask>
<path d="M212.004 267.664V269.367C212.004 270.956 211.837 272.659 211.504 274.475C211.172 276.177 211.005 277.823 211.005 279.412C211.227 283.725 211.782 288.209 212.669 292.862C213.556 297.403 214 301.773 214 305.972C214 308.81 213.612 311.42 212.835 313.804C212.059 316.188 210.728 318.344 208.843 320.274C207.512 321.636 205.515 322.544 202.853 322.998C200.191 323.452 197.308 324.417 194.202 325.892C191.984 326.914 190.043 327.992 188.379 329.127C186.716 330.376 185.052 331 183.388 331C181.281 331 178.674 330.489 175.569 329.468C172.574 328.56 169.413 327.425 166.086 326.063C162.759 324.587 159.487 323.055 156.27 321.466C153.054 319.877 150.281 318.401 147.952 317.039C144.957 315.45 142.628 313.634 140.964 311.591C139.411 309.548 138.302 307.107 137.637 304.27C136.971 301.319 136.583 297.857 136.472 293.884C136.361 289.798 136.306 284.86 136.306 279.072C136.306 274.531 136.361 269.367 136.472 263.578C136.583 257.789 136.639 252.284 136.639 247.063C136.639 243.091 136.639 238.891 136.639 234.464C136.75 229.924 135.973 225.838 134.309 222.206C133.422 221.298 131.703 220.73 129.152 220.503C126.601 220.276 123.773 220.163 120.667 220.163C118.116 220.163 115.51 220.219 112.848 220.333C110.297 220.446 107.912 220.503 105.694 220.503C102.589 220.503 99.8712 219.936 97.542 218.801C95.3238 217.666 93.0501 217.098 90.7209 217.098C89.6118 217.098 88.3363 217.495 86.8945 218.29C85.5635 219.084 84.898 220.787 84.898 223.398C84.898 224.646 85.0089 226.065 85.2308 227.654C85.4526 229.129 85.6744 230.548 85.8962 231.91C86.1181 233.272 86.3399 234.521 86.5617 235.656C86.7835 236.678 86.8945 237.359 86.8945 237.699C86.8945 241.899 86.7281 245.985 86.3954 249.958C86.0626 253.93 85.8962 257.392 85.8962 260.343C85.8962 262.84 86.1181 265.735 86.5617 269.026C87.0054 272.318 87.449 275.78 87.8927 279.412C88.4472 283.044 88.9463 286.79 89.39 290.649C89.8336 294.508 90.0555 298.197 90.0555 301.716C90.0555 307.618 89.3345 312.442 87.8927 316.188C86.5617 319.82 84.3435 322.714 81.2379 324.871C78.2433 326.914 74.3059 328.333 69.4258 329.127C64.5456 329.922 58.6673 330.319 51.7907 330.319C48.5742 330.319 45.5796 329.411 42.8068 327.595C40.034 325.779 37.5939 323.736 35.4866 321.466C33.3792 319.082 31.7156 316.812 30.4955 314.655C29.2755 312.499 28.6655 311.023 28.6655 310.229C28.6655 308.867 28.8318 307.505 29.1646 306.142C29.4973 304.667 29.8855 303.191 30.3292 301.716C30.7728 300.127 31.161 298.594 31.4937 297.119C31.8265 295.53 31.9928 294.054 31.9928 292.692C31.9928 290.763 31.771 288.833 31.3274 286.903C30.8837 284.86 30.3846 282.874 29.8301 280.944C29.3864 279.015 28.9428 277.085 28.4991 275.156C28.1664 273.226 28 271.41 28 269.707C28 266.756 28.3327 263.635 28.9982 260.343C29.6637 256.938 29.9964 253.76 29.9964 250.809C29.9964 246.496 29.8855 242.012 29.6637 237.359C29.4419 232.705 29.3309 227.938 29.3309 223.057C29.3309 220.56 29.3309 218.12 29.3309 215.736C29.4419 213.352 29.6637 210.855 29.9964 208.245C30.2182 206.996 30.6064 206.031 31.161 205.35C31.7156 204.669 31.9928 203.704 31.9928 202.456C31.9928 200.299 31.6601 198.256 30.9946 196.327C30.3292 194.397 29.9964 192.354 29.9964 190.197C29.9964 186.338 30.2182 181.968 30.6619 177.088C31.1055 172.207 31.6047 167.213 32.1592 162.105C32.8247 156.884 33.3792 151.719 33.8229 146.612C34.2665 141.39 34.4884 136.51 34.4884 131.969C34.4884 129.132 34.1002 126.237 33.3238 123.286C32.6583 120.335 32.3256 117.554 32.3256 114.944C32.3256 113.695 32.7692 112.049 33.6565 110.006C34.5438 107.85 35.8193 105.75 37.483 103.707C39.2576 101.664 41.3649 99.9043 43.805 98.4288C46.356 96.8397 49.2397 96.0452 52.4562 96.0452C56.0054 96.0452 59 96.4992 61.4401 97.4072C63.9911 98.2018 66.0429 99.2801 67.5957 100.642C69.2594 102.004 70.424 103.48 71.0894 105.069C71.8658 106.658 72.254 108.19 72.254 109.666C72.254 112.276 72.0877 114.887 71.7549 117.498C71.4222 120.108 71.2558 122.038 71.2558 123.286C71.4776 124.875 71.9213 126.521 72.5868 128.224C73.3631 129.813 73.9177 131.742 74.2504 134.013C74.9159 138.099 75.3596 142.639 75.5814 147.633C75.9141 152.514 76.136 157.111 76.2469 161.424C76.4687 165.624 76.6351 169.256 76.746 172.32C76.8569 175.271 77.0787 176.917 77.4115 177.258C78.1878 178.052 79.907 178.677 82.5689 179.131C85.2308 179.471 88.2254 179.755 91.5528 179.982C94.8801 180.095 98.3184 180.209 101.868 180.322C105.417 180.322 108.522 180.379 111.184 180.493C113.07 180.72 115.177 181.003 117.506 181.344C119.835 181.685 122.109 181.855 124.327 181.855C127.766 181.855 129.984 180.947 130.982 179.131C132.091 177.315 132.646 174.931 132.646 171.98C132.646 169.029 132.369 166.021 131.814 162.956C131.37 159.892 131.148 157.451 131.148 155.635C131.148 153.933 131.481 152.4 132.147 151.038C132.923 149.676 133.311 148.314 133.311 146.952C133.311 141.163 132.923 135.318 132.147 129.416C131.481 123.4 131.148 117.838 131.148 112.73C131.148 110.687 131.426 108.19 131.98 105.239C132.646 102.174 133.755 99.2233 135.308 96.3857C136.86 93.5481 138.968 91.1077 141.63 89.0646C144.292 87.0215 147.73 86 151.945 86C154.828 86 158.156 86.5108 161.927 87.5323C165.809 88.4404 169.524 89.6322 173.073 91.1077C176.623 92.5833 179.839 94.2858 182.723 96.2154C185.606 98.0315 187.603 99.8476 188.712 101.664C189.71 103.253 190.376 105.182 190.708 107.452C191.152 109.609 191.429 111.993 191.54 114.603C191.762 117.1 191.873 119.711 191.873 122.435C191.873 125.046 191.984 127.543 192.206 129.926C192.428 133.331 192.705 137.134 193.038 141.334C193.37 145.533 193.759 149.903 194.202 154.443C194.757 158.984 195.422 163.58 196.199 168.234C196.975 172.888 198.029 177.315 199.36 181.514C199.803 183.217 200.413 184.806 201.19 186.281C201.966 187.644 202.687 189.006 203.352 190.368C204.129 191.616 204.739 192.865 205.182 194.113C205.737 195.248 205.959 196.383 205.848 197.518C205.848 199.107 205.682 200.64 205.349 202.115C205.016 203.591 204.85 205.293 204.85 207.223C204.85 211.65 205.349 216.417 206.347 221.525C207.345 226.632 207.844 231.74 207.844 236.848C207.844 238.664 207.789 240.423 207.678 242.126C207.567 243.828 207.512 245.474 207.512 247.063C207.512 248.766 207.733 250.525 208.177 252.341C208.621 254.044 209.12 255.746 209.674 257.449C210.229 259.151 210.728 260.854 211.172 262.557C211.615 264.259 211.893 265.962 212.004 267.664Z" fill="#315B8F"/>
<path d="M212.004 267.664V269.367C212.004 270.956 211.837 272.659 211.504 274.475C211.172 276.177 211.005 277.823 211.005 279.412C211.227 283.725 211.782 288.209 212.669 292.862C213.556 297.403 214 301.773 214 305.972C214 308.81 213.612 311.42 212.835 313.804C212.059 316.188 210.728 318.344 208.843 320.274C207.512 321.636 205.515 322.544 202.853 322.998C200.191 323.452 197.308 324.417 194.202 325.892C191.984 326.914 190.043 327.992 188.379 329.127C186.716 330.376 185.052 331 183.388 331C181.281 331 178.674 330.489 175.569 329.468C172.574 328.56 169.413 327.425 166.086 326.063C162.759 324.587 159.487 323.055 156.27 321.466C153.054 319.877 150.281 318.401 147.952 317.039C144.957 315.45 142.628 313.634 140.964 311.591C139.411 309.548 138.302 307.107 137.637 304.27C136.971 301.319 136.583 297.857 136.472 293.884C136.361 289.798 136.306 284.86 136.306 279.072C136.306 274.531 136.361 269.367 136.472 263.578C136.583 257.789 136.639 252.284 136.639 247.063C136.639 243.091 136.639 238.891 136.639 234.464C136.75 229.924 135.973 225.838 134.309 222.206C133.422 221.298 131.703 220.73 129.152 220.503C126.601 220.276 123.773 220.163 120.667 220.163C118.116 220.163 115.51 220.219 112.848 220.333C110.297 220.446 107.912 220.503 105.694 220.503C102.589 220.503 99.8712 219.936 97.542 218.801C95.3238 217.666 93.0501 217.098 90.7209 217.098C89.6118 217.098 88.3363 217.495 86.8945 218.29C85.5635 219.084 84.898 220.787 84.898 223.398C84.898 224.646 85.0089 226.065 85.2308 227.654C85.4526 229.129 85.6744 230.548 85.8962 231.91C86.1181 233.272 86.3399 234.521 86.5617 235.656C86.7835 236.678 86.8945 237.359 86.8945 237.699C86.8945 241.899 86.7281 245.985 86.3954 249.958C86.0626 253.93 85.8962 257.392 85.8962 260.343C85.8962 262.84 86.1181 265.735 86.5617 269.026C87.0054 272.318 87.449 275.78 87.8927 279.412C88.4472 283.044 88.9463 286.79 89.39 290.649C89.8336 294.508 90.0555 298.197 90.0555 301.716C90.0555 307.618 89.3345 312.442 87.8927 316.188C86.5617 319.82 84.3435 322.714 81.2379 324.871C78.2433 326.914 74.3059 328.333 69.4258 329.127C64.5456 329.922 58.6673 330.319 51.7907 330.319C48.5742 330.319 45.5796 329.411 42.8068 327.595C40.034 325.779 37.5939 323.736 35.4866 321.466C33.3792 319.082 31.7156 316.812 30.4955 314.655C29.2755 312.499 28.6655 311.023 28.6655 310.229C28.6655 308.867 28.8318 307.505 29.1646 306.142C29.4973 304.667 29.8855 303.191 30.3292 301.716C30.7728 300.127 31.161 298.594 31.4937 297.119C31.8265 295.53 31.9928 294.054 31.9928 292.692C31.9928 290.763 31.771 288.833 31.3274 286.903C30.8837 284.86 30.3846 282.874 29.8301 280.944C29.3864 279.015 28.9428 277.085 28.4991 275.156C28.1664 273.226 28 271.41 28 269.707C28 266.756 28.3327 263.635 28.9982 260.343C29.6637 256.938 29.9964 253.76 29.9964 250.809C29.9964 246.496 29.8855 242.012 29.6637 237.359C29.4419 232.705 29.3309 227.938 29.3309 223.057C29.3309 220.56 29.3309 218.12 29.3309 215.736C29.4419 213.352 29.6637 210.855 29.9964 208.245C30.2182 206.996 30.6064 206.031 31.161 205.35C31.7156 204.669 31.9928 203.704 31.9928 202.456C31.9928 200.299 31.6601 198.256 30.9946 196.327C30.3292 194.397 29.9964 192.354 29.9964 190.197C29.9964 186.338 30.2182 181.968 30.6619 177.088C31.1055 172.207 31.6047 167.213 32.1592 162.105C32.8247 156.884 33.3792 151.719 33.8229 146.612C34.2665 141.39 34.4884 136.51 34.4884 131.969C34.4884 129.132 34.1002 126.237 33.3238 123.286C32.6583 120.335 32.3256 117.554 32.3256 114.944C32.3256 113.695 32.7692 112.049 33.6565 110.006C34.5438 107.85 35.8193 105.75 37.483 103.707C39.2576 101.664 41.3649 99.9043 43.805 98.4288C46.356 96.8397 49.2397 96.0452 52.4562 96.0452C56.0054 96.0452 59 96.4992 61.4401 97.4072C63.9911 98.2018 66.0429 99.2801 67.5957 100.642C69.2594 102.004 70.424 103.48 71.0894 105.069C71.8658 106.658 72.254 108.19 72.254 109.666C72.254 112.276 72.0877 114.887 71.7549 117.498C71.4222 120.108 71.2558 122.038 71.2558 123.286C71.4776 124.875 71.9213 126.521 72.5868 128.224C73.3631 129.813 73.9177 131.742 74.2504 134.013C74.9159 138.099 75.3596 142.639 75.5814 147.633C75.9141 152.514 76.136 157.111 76.2469 161.424C76.4687 165.624 76.6351 169.256 76.746 172.32C76.8569 175.271 77.0787 176.917 77.4115 177.258C78.1878 178.052 79.907 178.677 82.5689 179.131C85.2308 179.471 88.2254 179.755 91.5528 179.982C94.8801 180.095 98.3184 180.209 101.868 180.322C105.417 180.322 108.522 180.379 111.184 180.493C113.07 180.72 115.177 181.003 117.506 181.344C119.835 181.685 122.109 181.855 124.327 181.855C127.766 181.855 129.984 180.947 130.982 179.131C132.091 177.315 132.646 174.931 132.646 171.98C132.646 169.029 132.369 166.021 131.814 162.956C131.37 159.892 131.148 157.451 131.148 155.635C131.148 153.933 131.481 152.4 132.147 151.038C132.923 149.676 133.311 148.314 133.311 146.952C133.311 141.163 132.923 135.318 132.147 129.416C131.481 123.4 131.148 117.838 131.148 112.73C131.148 110.687 131.426 108.19 131.98 105.239C132.646 102.174 133.755 99.2233 135.308 96.3857C136.86 93.5481 138.968 91.1077 141.63 89.0646C144.292 87.0215 147.73 86 151.945 86C154.828 86 158.156 86.5108 161.927 87.5323C165.809 88.4404 169.524 89.6322 173.073 91.1077C176.623 92.5833 179.839 94.2858 182.723 96.2154C185.606 98.0315 187.603 99.8476 188.712 101.664C189.71 103.253 190.376 105.182 190.708 107.452C191.152 109.609 191.429 111.993 191.54 114.603C191.762 117.1 191.873 119.711 191.873 122.435C191.873 125.046 191.984 127.543 192.206 129.926C192.428 133.331 192.705 137.134 193.038 141.334C193.37 145.533 193.759 149.903 194.202 154.443C194.757 158.984 195.422 163.58 196.199 168.234C196.975 172.888 198.029 177.315 199.36 181.514C199.803 183.217 200.413 184.806 201.19 186.281C201.966 187.644 202.687 189.006 203.352 190.368C204.129 191.616 204.739 192.865 205.182 194.113C205.737 195.248 205.959 196.383 205.848 197.518C205.848 199.107 205.682 200.64 205.349 202.115C205.016 203.591 204.85 205.293 204.85 207.223C204.85 211.65 205.349 216.417 206.347 221.525C207.345 226.632 207.844 231.74 207.844 236.848C207.844 238.664 207.789 240.423 207.678 242.126C207.567 243.828 207.512 245.474 207.512 247.063C207.512 248.766 207.733 250.525 208.177 252.341C208.621 254.044 209.12 255.746 209.674 257.449C210.229 259.151 210.728 260.854 211.172 262.557C211.615 264.259 211.893 265.962 212.004 267.664Z" stroke="black" stroke-width="10" mask="url(#path-1-outside-1_1_8)"/>
<mask id="path-2-outside-2_1_8" maskUnits="userSpaceOnUse" x="225" y="92" width="241" height="244" fill="black">
<rect fill="white" x="225" y="92" width="241" height="244"/>
<path d="M461 251.494C461 257.742 460.558 264.326 459.675 271.245C458.792 278.163 457.523 284.691 455.867 290.828C454.321 296.966 452.334 302.322 449.905 306.897C447.587 311.361 444.938 314.373 441.957 315.936C440.743 316.605 438.976 317.33 436.658 318.112C434.45 318.781 431.911 319.395 429.041 319.953C426.281 320.511 423.411 320.957 420.43 321.292C417.449 321.627 414.579 321.794 411.819 321.794C410.053 321.794 407.9 321.459 405.361 320.79C402.822 320.12 400.394 319.116 398.075 317.777C395.757 316.326 393.77 314.597 392.114 312.588C390.568 310.468 389.796 308.069 389.796 305.391C389.796 303.159 389.741 300.871 389.63 298.528C389.52 296.185 389.465 293.897 389.465 291.665C389.465 284.412 389.575 276.936 389.796 269.236C390.016 261.425 390.127 253.446 390.127 245.3C390.127 237.712 389.906 230.069 389.465 222.369C389.133 214.67 388.471 206.803 387.477 198.768C384.938 200.442 382.62 202.618 380.523 205.296C378.535 207.974 376.604 210.876 374.727 214C372.961 217.013 371.249 220.137 369.594 223.373C367.938 226.609 366.171 229.622 364.295 232.412C362.639 234.979 360.652 237.155 358.333 238.94C356.015 240.725 354.194 242.734 352.869 244.966C351.544 247.197 350.771 249.373 350.551 251.494C350.33 253.614 349.778 255.511 348.895 257.185C348.011 258.747 346.411 260.03 344.092 261.034C341.774 261.927 337.91 262.318 332.501 262.206C329.079 262.206 326.374 261.592 324.387 260.365C322.51 259.137 320.854 257.464 319.419 255.343C317.984 253.112 316.604 250.601 315.28 247.811C313.955 245.021 312.244 242.009 310.146 238.773C308.932 237.099 307.607 235.648 306.172 234.421C304.847 233.193 303.688 231.798 302.695 230.236C301.37 228.116 299.99 225.717 298.555 223.039C297.12 220.361 295.74 217.627 294.415 214.837C293.09 212.047 291.766 209.258 290.441 206.468C289.227 203.678 288.067 201.112 286.963 198.768C287.184 203.009 287.35 207.361 287.46 211.824C287.571 216.288 287.626 220.974 287.626 225.884V244.966C287.626 249.094 287.626 253.223 287.626 257.352C287.736 261.481 287.902 265.498 288.123 269.403C288.233 271.747 288.509 274.146 288.951 276.601C289.392 279.056 289.834 281.567 290.275 284.133C290.827 286.7 291.324 289.266 291.766 291.833C292.207 294.399 292.428 296.854 292.428 299.197C292.428 301.541 292.207 303.27 291.766 304.386C291.434 305.502 290.882 306.506 290.11 307.399C289.337 308.18 288.343 309.017 287.129 309.91C286.025 310.803 284.645 312.142 282.989 313.927C281.333 315.712 279.788 317.609 278.353 319.618C277.028 321.627 275.538 323.468 273.882 325.142C272.226 326.815 270.404 328.21 268.417 329.326C266.43 330.442 264.057 331 261.297 331C257.764 331 254.176 330.498 250.533 329.494C246.89 328.489 243.523 327.094 240.432 325.309C237.341 323.412 234.802 321.124 232.815 318.446C230.938 315.768 230 312.755 230 309.408C230 305.167 230.497 299.979 231.49 293.841C232.594 287.704 233.146 281.12 233.146 274.09C233.146 271.412 233.312 269.18 233.643 267.395C233.974 265.498 234.361 263.768 234.802 262.206C235.354 260.532 235.906 258.914 236.458 257.352C237.01 255.678 237.452 253.725 237.783 251.494C238.335 248.146 238.721 244.519 238.942 240.614C239.273 236.708 239.549 232.691 239.77 228.562C239.991 224.322 240.156 220.026 240.267 215.674C240.487 211.322 240.708 207.026 240.929 202.785C241.039 200.777 241.26 198.824 241.591 196.927C242.033 195.03 242.419 193.077 242.751 191.069C243.192 189.06 243.523 186.996 243.744 184.876C244.075 182.755 244.241 180.412 244.241 177.845C244.241 175.502 244.02 173.326 243.578 171.318C243.247 169.309 242.861 167.245 242.419 165.124C241.978 163.004 241.536 160.773 241.095 158.429C240.763 155.974 240.598 153.185 240.598 150.06C240.598 148.052 240.874 145.876 241.426 143.532C242.088 141.077 242.861 138.567 243.744 136C244.627 133.322 245.566 130.588 246.559 127.798C247.553 125.009 248.491 122.163 249.374 119.262C249.816 117.811 250.092 116.361 250.202 114.91C250.313 113.459 250.368 112.12 250.368 110.893C250.368 109.554 250.423 108.438 250.533 107.545C250.644 106.652 250.92 105.983 251.361 105.536C251.582 105.09 252.3 104.588 253.514 104.03C254.728 103.472 255.998 102.914 257.323 102.356C258.758 101.687 260.082 101.185 261.297 100.85C262.622 100.403 263.505 100.124 263.946 100.013C265.492 100.013 266.872 100.515 268.086 101.519C269.411 102.412 271.177 103.082 273.385 103.528C276.586 104.197 279.733 104.644 282.824 104.867C286.025 105.09 288.951 105.369 291.6 105.704C294.36 106.039 296.844 106.541 299.052 107.21C301.37 107.88 303.247 109.052 304.682 110.725C306.227 112.399 307.662 114.575 308.987 117.253C310.312 119.82 311.581 122.554 312.796 125.455C314.12 128.356 315.39 131.313 316.604 134.326C317.929 137.339 319.254 140.073 320.578 142.528C321.793 144.76 323.228 146.824 324.884 148.721C326.54 150.506 327.809 152.348 328.692 154.245C329.355 155.472 329.741 156.923 329.852 158.597C329.962 160.159 330.404 161.554 331.176 162.781C331.508 163.562 332.556 165.515 334.323 168.639C336.089 171.764 338.021 175.112 340.118 178.682C342.326 182.142 344.313 185.266 346.08 188.056C347.956 190.845 349.171 192.24 349.723 192.24C351.047 192.24 352.262 191.292 353.366 189.395C354.58 187.498 355.739 185.155 356.843 182.365C357.947 179.575 359.106 176.618 360.32 173.494C361.535 170.258 362.86 167.356 364.295 164.79C366.061 161.888 368.048 159.155 370.256 156.588C372.464 153.91 374.341 150.953 375.886 147.717C376.88 145.597 377.873 142.863 378.867 139.515C379.971 136.167 381.13 132.652 382.344 128.97C383.558 125.176 384.883 121.382 386.318 117.588C387.864 113.794 389.575 110.391 391.452 107.378C393.328 104.253 395.426 101.742 397.744 99.8455C400.062 97.9485 402.712 97 405.692 97C407.128 97 408.342 97.2232 409.335 97.6695C410.329 98.0043 411.323 98.5064 412.316 99.176C413.42 99.8455 414.634 100.571 415.959 101.352C417.284 102.133 418.94 102.858 420.927 103.528C422.804 104.086 424.68 104.532 426.557 104.867C428.544 105.202 430.421 105.536 432.187 105.871C433.953 106.206 435.554 106.652 436.989 107.21C438.535 107.657 439.86 108.438 440.963 109.554C442.067 110.781 442.951 112.343 443.613 114.24C444.275 116.137 444.772 118.202 445.103 120.433C445.545 122.665 445.821 125.064 445.931 127.631C446.152 130.197 446.318 132.764 446.428 135.33C446.428 139.124 446.318 142.807 446.097 146.378C445.876 149.837 445.766 153.129 445.766 156.253C445.766 158.82 445.931 161.052 446.262 162.948C446.704 164.845 447.146 166.798 447.587 168.807C448.139 170.704 448.636 172.88 449.077 175.335C449.519 177.79 449.74 180.803 449.74 184.373C449.74 187.833 449.629 191.459 449.409 195.253C449.188 198.936 449.077 202.506 449.077 205.966C449.077 210.206 449.353 213.609 449.905 216.176C450.568 218.631 451.341 220.695 452.224 222.369C453.107 224.043 454.045 225.605 455.039 227.056C456.032 228.506 456.915 230.292 457.688 232.412C458.019 233.305 458.351 234.588 458.682 236.262C459.013 237.936 459.344 239.721 459.675 241.618C460.006 243.403 460.282 245.189 460.503 246.974C460.724 248.76 460.89 250.266 461 251.494Z"/>
</mask>
<path d="M461 251.494C461 257.742 460.558 264.326 459.675 271.245C458.792 278.163 457.523 284.691 455.867 290.828C454.321 296.966 452.334 302.322 449.905 306.897C447.587 311.361 444.938 314.373 441.957 315.936C440.743 316.605 438.976 317.33 436.658 318.112C434.45 318.781 431.911 319.395 429.041 319.953C426.281 320.511 423.411 320.957 420.43 321.292C417.449 321.627 414.579 321.794 411.819 321.794C410.053 321.794 407.9 321.459 405.361 320.79C402.822 320.12 400.394 319.116 398.075 317.777C395.757 316.326 393.77 314.597 392.114 312.588C390.568 310.468 389.796 308.069 389.796 305.391C389.796 303.159 389.741 300.871 389.63 298.528C389.52 296.185 389.465 293.897 389.465 291.665C389.465 284.412 389.575 276.936 389.796 269.236C390.016 261.425 390.127 253.446 390.127 245.3C390.127 237.712 389.906 230.069 389.465 222.369C389.133 214.67 388.471 206.803 387.477 198.768C384.938 200.442 382.62 202.618 380.523 205.296C378.535 207.974 376.604 210.876 374.727 214C372.961 217.013 371.249 220.137 369.594 223.373C367.938 226.609 366.171 229.622 364.295 232.412C362.639 234.979 360.652 237.155 358.333 238.94C356.015 240.725 354.194 242.734 352.869 244.966C351.544 247.197 350.771 249.373 350.551 251.494C350.33 253.614 349.778 255.511 348.895 257.185C348.011 258.747 346.411 260.03 344.092 261.034C341.774 261.927 337.91 262.318 332.501 262.206C329.079 262.206 326.374 261.592 324.387 260.365C322.51 259.137 320.854 257.464 319.419 255.343C317.984 253.112 316.604 250.601 315.28 247.811C313.955 245.021 312.244 242.009 310.146 238.773C308.932 237.099 307.607 235.648 306.172 234.421C304.847 233.193 303.688 231.798 302.695 230.236C301.37 228.116 299.99 225.717 298.555 223.039C297.12 220.361 295.74 217.627 294.415 214.837C293.09 212.047 291.766 209.258 290.441 206.468C289.227 203.678 288.067 201.112 286.963 198.768C287.184 203.009 287.35 207.361 287.46 211.824C287.571 216.288 287.626 220.974 287.626 225.884V244.966C287.626 249.094 287.626 253.223 287.626 257.352C287.736 261.481 287.902 265.498 288.123 269.403C288.233 271.747 288.509 274.146 288.951 276.601C289.392 279.056 289.834 281.567 290.275 284.133C290.827 286.7 291.324 289.266 291.766 291.833C292.207 294.399 292.428 296.854 292.428 299.197C292.428 301.541 292.207 303.27 291.766 304.386C291.434 305.502 290.882 306.506 290.11 307.399C289.337 308.18 288.343 309.017 287.129 309.91C286.025 310.803 284.645 312.142 282.989 313.927C281.333 315.712 279.788 317.609 278.353 319.618C277.028 321.627 275.538 323.468 273.882 325.142C272.226 326.815 270.404 328.21 268.417 329.326C266.43 330.442 264.057 331 261.297 331C257.764 331 254.176 330.498 250.533 329.494C246.89 328.489 243.523 327.094 240.432 325.309C237.341 323.412 234.802 321.124 232.815 318.446C230.938 315.768 230 312.755 230 309.408C230 305.167 230.497 299.979 231.49 293.841C232.594 287.704 233.146 281.12 233.146 274.09C233.146 271.412 233.312 269.18 233.643 267.395C233.974 265.498 234.361 263.768 234.802 262.206C235.354 260.532 235.906 258.914 236.458 257.352C237.01 255.678 237.452 253.725 237.783 251.494C238.335 248.146 238.721 244.519 238.942 240.614C239.273 236.708 239.549 232.691 239.77 228.562C239.991 224.322 240.156 220.026 240.267 215.674C240.487 211.322 240.708 207.026 240.929 202.785C241.039 200.777 241.26 198.824 241.591 196.927C242.033 195.03 242.419 193.077 242.751 191.069C243.192 189.06 243.523 186.996 243.744 184.876C244.075 182.755 244.241 180.412 244.241 177.845C244.241 175.502 244.02 173.326 243.578 171.318C243.247 169.309 242.861 167.245 242.419 165.124C241.978 163.004 241.536 160.773 241.095 158.429C240.763 155.974 240.598 153.185 240.598 150.06C240.598 148.052 240.874 145.876 241.426 143.532C242.088 141.077 242.861 138.567 243.744 136C244.627 133.322 245.566 130.588 246.559 127.798C247.553 125.009 248.491 122.163 249.374 119.262C249.816 117.811 250.092 116.361 250.202 114.91C250.313 113.459 250.368 112.12 250.368 110.893C250.368 109.554 250.423 108.438 250.533 107.545C250.644 106.652 250.92 105.983 251.361 105.536C251.582 105.09 252.3 104.588 253.514 104.03C254.728 103.472 255.998 102.914 257.323 102.356C258.758 101.687 260.082 101.185 261.297 100.85C262.622 100.403 263.505 100.124 263.946 100.013C265.492 100.013 266.872 100.515 268.086 101.519C269.411 102.412 271.177 103.082 273.385 103.528C276.586 104.197 279.733 104.644 282.824 104.867C286.025 105.09 288.951 105.369 291.6 105.704C294.36 106.039 296.844 106.541 299.052 107.21C301.37 107.88 303.247 109.052 304.682 110.725C306.227 112.399 307.662 114.575 308.987 117.253C310.312 119.82 311.581 122.554 312.796 125.455C314.12 128.356 315.39 131.313 316.604 134.326C317.929 137.339 319.254 140.073 320.578 142.528C321.793 144.76 323.228 146.824 324.884 148.721C326.54 150.506 327.809 152.348 328.692 154.245C329.355 155.472 329.741 156.923 329.852 158.597C329.962 160.159 330.404 161.554 331.176 162.781C331.508 163.562 332.556 165.515 334.323 168.639C336.089 171.764 338.021 175.112 340.118 178.682C342.326 182.142 344.313 185.266 346.08 188.056C347.956 190.845 349.171 192.24 349.723 192.24C351.047 192.24 352.262 191.292 353.366 189.395C354.58 187.498 355.739 185.155 356.843 182.365C357.947 179.575 359.106 176.618 360.32 173.494C361.535 170.258 362.86 167.356 364.295 164.79C366.061 161.888 368.048 159.155 370.256 156.588C372.464 153.91 374.341 150.953 375.886 147.717C376.88 145.597 377.873 142.863 378.867 139.515C379.971 136.167 381.13 132.652 382.344 128.97C383.558 125.176 384.883 121.382 386.318 117.588C387.864 113.794 389.575 110.391 391.452 107.378C393.328 104.253 395.426 101.742 397.744 99.8455C400.062 97.9485 402.712 97 405.692 97C407.128 97 408.342 97.2232 409.335 97.6695C410.329 98.0043 411.323 98.5064 412.316 99.176C413.42 99.8455 414.634 100.571 415.959 101.352C417.284 102.133 418.94 102.858 420.927 103.528C422.804 104.086 424.68 104.532 426.557 104.867C428.544 105.202 430.421 105.536 432.187 105.871C433.953 106.206 435.554 106.652 436.989 107.21C438.535 107.657 439.86 108.438 440.963 109.554C442.067 110.781 442.951 112.343 443.613 114.24C444.275 116.137 444.772 118.202 445.103 120.433C445.545 122.665 445.821 125.064 445.931 127.631C446.152 130.197 446.318 132.764 446.428 135.33C446.428 139.124 446.318 142.807 446.097 146.378C445.876 149.837 445.766 153.129 445.766 156.253C445.766 158.82 445.931 161.052 446.262 162.948C446.704 164.845 447.146 166.798 447.587 168.807C448.139 170.704 448.636 172.88 449.077 175.335C449.519 177.79 449.74 180.803 449.74 184.373C449.74 187.833 449.629 191.459 449.409 195.253C449.188 198.936 449.077 202.506 449.077 205.966C449.077 210.206 449.353 213.609 449.905 216.176C450.568 218.631 451.341 220.695 452.224 222.369C453.107 224.043 454.045 225.605 455.039 227.056C456.032 228.506 456.915 230.292 457.688 232.412C458.019 233.305 458.351 234.588 458.682 236.262C459.013 237.936 459.344 239.721 459.675 241.618C460.006 243.403 460.282 245.189 460.503 246.974C460.724 248.76 460.89 250.266 461 251.494Z" fill="#315B8F"/>
<path d="M461 251.494C461 257.742 460.558 264.326 459.675 271.245C458.792 278.163 457.523 284.691 455.867 290.828C454.321 296.966 452.334 302.322 449.905 306.897C447.587 311.361 444.938 314.373 441.957 315.936C440.743 316.605 438.976 317.33 436.658 318.112C434.45 318.781 431.911 319.395 429.041 319.953C426.281 320.511 423.411 320.957 420.43 321.292C417.449 321.627 414.579 321.794 411.819 321.794C410.053 321.794 407.9 321.459 405.361 320.79C402.822 320.12 400.394 319.116 398.075 317.777C395.757 316.326 393.77 314.597 392.114 312.588C390.568 310.468 389.796 308.069 389.796 305.391C389.796 303.159 389.741 300.871 389.63 298.528C389.52 296.185 389.465 293.897 389.465 291.665C389.465 284.412 389.575 276.936 389.796 269.236C390.016 261.425 390.127 253.446 390.127 245.3C390.127 237.712 389.906 230.069 389.465 222.369C389.133 214.67 388.471 206.803 387.477 198.768C384.938 200.442 382.62 202.618 380.523 205.296C378.535 207.974 376.604 210.876 374.727 214C372.961 217.013 371.249 220.137 369.594 223.373C367.938 226.609 366.171 229.622 364.295 232.412C362.639 234.979 360.652 237.155 358.333 238.94C356.015 240.725 354.194 242.734 352.869 244.966C351.544 247.197 350.771 249.373 350.551 251.494C350.33 253.614 349.778 255.511 348.895 257.185C348.011 258.747 346.411 260.03 344.092 261.034C341.774 261.927 337.91 262.318 332.501 262.206C329.079 262.206 326.374 261.592 324.387 260.365C322.51 259.137 320.854 257.464 319.419 255.343C317.984 253.112 316.604 250.601 315.28 247.811C313.955 245.021 312.244 242.009 310.146 238.773C308.932 237.099 307.607 235.648 306.172 234.421C304.847 233.193 303.688 231.798 302.695 230.236C301.37 228.116 299.99 225.717 298.555 223.039C297.12 220.361 295.74 217.627 294.415 214.837C293.09 212.047 291.766 209.258 290.441 206.468C289.227 203.678 288.067 201.112 286.963 198.768C287.184 203.009 287.35 207.361 287.46 211.824C287.571 216.288 287.626 220.974 287.626 225.884V244.966C287.626 249.094 287.626 253.223 287.626 257.352C287.736 261.481 287.902 265.498 288.123 269.403C288.233 271.747 288.509 274.146 288.951 276.601C289.392 279.056 289.834 281.567 290.275 284.133C290.827 286.7 291.324 289.266 291.766 291.833C292.207 294.399 292.428 296.854 292.428 299.197C292.428 301.541 292.207 303.27 291.766 304.386C291.434 305.502 290.882 306.506 290.11 307.399C289.337 308.18 288.343 309.017 287.129 309.91C286.025 310.803 284.645 312.142 282.989 313.927C281.333 315.712 279.788 317.609 278.353 319.618C277.028 321.627 275.538 323.468 273.882 325.142C272.226 326.815 270.404 328.21 268.417 329.326C266.43 330.442 264.057 331 261.297 331C257.764 331 254.176 330.498 250.533 329.494C246.89 328.489 243.523 327.094 240.432 325.309C237.341 323.412 234.802 321.124 232.815 318.446C230.938 315.768 230 312.755 230 309.408C230 305.167 230.497 299.979 231.49 293.841C232.594 287.704 233.146 281.12 233.146 274.09C233.146 271.412 233.312 269.18 233.643 267.395C233.974 265.498 234.361 263.768 234.802 262.206C235.354 260.532 235.906 258.914 236.458 257.352C237.01 255.678 237.452 253.725 237.783 251.494C238.335 248.146 238.721 244.519 238.942 240.614C239.273 236.708 239.549 232.691 239.77 228.562C239.991 224.322 240.156 220.026 240.267 215.674C240.487 211.322 240.708 207.026 240.929 202.785C241.039 200.777 241.26 198.824 241.591 196.927C242.033 195.03 242.419 193.077 242.751 191.069C243.192 189.06 243.523 186.996 243.744 184.876C244.075 182.755 244.241 180.412 244.241 177.845C244.241 175.502 244.02 173.326 243.578 171.318C243.247 169.309 242.861 167.245 242.419 165.124C241.978 163.004 241.536 160.773 241.095 158.429C240.763 155.974 240.598 153.185 240.598 150.06C240.598 148.052 240.874 145.876 241.426 143.532C242.088 141.077 242.861 138.567 243.744 136C244.627 133.322 245.566 130.588 246.559 127.798C247.553 125.009 248.491 122.163 249.374 119.262C249.816 117.811 250.092 116.361 250.202 114.91C250.313 113.459 250.368 112.12 250.368 110.893C250.368 109.554 250.423 108.438 250.533 107.545C250.644 106.652 250.92 105.983 251.361 105.536C251.582 105.09 252.3 104.588 253.514 104.03C254.728 103.472 255.998 102.914 257.323 102.356C258.758 101.687 260.082 101.185 261.297 100.85C262.622 100.403 263.505 100.124 263.946 100.013C265.492 100.013 266.872 100.515 268.086 101.519C269.411 102.412 271.177 103.082 273.385 103.528C276.586 104.197 279.733 104.644 282.824 104.867C286.025 105.09 288.951 105.369 291.6 105.704C294.36 106.039 296.844 106.541 299.052 107.21C301.37 107.88 303.247 109.052 304.682 110.725C306.227 112.399 307.662 114.575 308.987 117.253C310.312 119.82 311.581 122.554 312.796 125.455C314.12 128.356 315.39 131.313 316.604 134.326C317.929 137.339 319.254 140.073 320.578 142.528C321.793 144.76 323.228 146.824 324.884 148.721C326.54 150.506 327.809 152.348 328.692 154.245C329.355 155.472 329.741 156.923 329.852 158.597C329.962 160.159 330.404 161.554 331.176 162.781C331.508 163.562 332.556 165.515 334.323 168.639C336.089 171.764 338.021 175.112 340.118 178.682C342.326 182.142 344.313 185.266 346.08 188.056C347.956 190.845 349.171 192.24 349.723 192.24C351.047 192.24 352.262 191.292 353.366 189.395C354.58 187.498 355.739 185.155 356.843 182.365C357.947 179.575 359.106 176.618 360.32 173.494C361.535 170.258 362.86 167.356 364.295 164.79C366.061 161.888 368.048 159.155 370.256 156.588C372.464 153.91 374.341 150.953 375.886 147.717C376.88 145.597 377.873 142.863 378.867 139.515C379.971 136.167 381.13 132.652 382.344 128.97C383.558 125.176 384.883 121.382 386.318 117.588C387.864 113.794 389.575 110.391 391.452 107.378C393.328 104.253 395.426 101.742 397.744 99.8455C400.062 97.9485 402.712 97 405.692 97C407.128 97 408.342 97.2232 409.335 97.6695C410.329 98.0043 411.323 98.5064 412.316 99.176C413.42 99.8455 414.634 100.571 415.959 101.352C417.284 102.133 418.94 102.858 420.927 103.528C422.804 104.086 424.68 104.532 426.557 104.867C428.544 105.202 430.421 105.536 432.187 105.871C433.953 106.206 435.554 106.652 436.989 107.21C438.535 107.657 439.86 108.438 440.963 109.554C442.067 110.781 442.951 112.343 443.613 114.24C444.275 116.137 444.772 118.202 445.103 120.433C445.545 122.665 445.821 125.064 445.931 127.631C446.152 130.197 446.318 132.764 446.428 135.33C446.428 139.124 446.318 142.807 446.097 146.378C445.876 149.837 445.766 153.129 445.766 156.253C445.766 158.82 445.931 161.052 446.262 162.948C446.704 164.845 447.146 166.798 447.587 168.807C448.139 170.704 448.636 172.88 449.077 175.335C449.519 177.79 449.74 180.803 449.74 184.373C449.74 187.833 449.629 191.459 449.409 195.253C449.188 198.936 449.077 202.506 449.077 205.966C449.077 210.206 449.353 213.609 449.905 216.176C450.568 218.631 451.341 220.695 452.224 222.369C453.107 224.043 454.045 225.605 455.039 227.056C456.032 228.506 456.915 230.292 457.688 232.412C458.019 233.305 458.351 234.588 458.682 236.262C459.013 237.936 459.344 239.721 459.675 241.618C460.006 243.403 460.282 245.189 460.503 246.974C460.724 248.76 460.89 250.266 461 251.494Z" stroke="black" stroke-width="10" mask="url(#path-2-outside-2_1_8)"/>
</svg>
