<svg width="96" height="96" viewBox="0 0 551 502" fill="none" xmlns="http://www.w3.org/2000/svg">
<path d="M275.5 7.44243L334.999 174.277L335.591 175.937H337.354H529.21L374.201 278.542L372.569 279.622L373.227 281.466L432.561 447.839L276.88 344.789L275.5 343.875L274.12 344.789L118.439 447.839L177.773 281.466L178.431 279.622L176.799 278.542L21.79 175.937H213.646H215.409L216.001 174.277L275.5 7.44243Z" fill="#6E708A" stroke="black" stroke-width="5"/>
<path d="M275.5 122.973L303.144 210.353L303.476 211.401H304.575H394.143L321.647 265.496L320.792 266.134L321.113 267.151L348.784 354.613L276.397 300.599L275.5 299.93L274.603 300.599L202.216 354.613L229.887 267.151L230.208 266.134L229.353 265.496L156.857 211.401H246.425H247.524L247.856 210.353L275.5 122.973Z" fill="#B6C4D6" stroke="black" stroke-width="3"/>
</svg>
